<svg height="-492" viewBox="9.32 197.7 481.37 104.82" width="2500" xmlns="http://www.w3.org/2000/svg"><path d="m422.72 263.08v35.94c0 1.35-.54 2.41-1.8 2.96-1.23.54-2.33.22-3.31-.66-2.25-2.02-4.53-4.01-6.76-6.05-10.2-9.31-20.25-18.78-29.83-28.73-4.06-4.22-8.01-8.57-11.77-13.06-4.36-5.21-7.09-11.27-7.8-18.07-1.29-12.39 3.22-22.33 13.63-29.08 9.7-6.29 20.38-7.7 31.16-3.12 9.66 4.11 14.99 11.89 16.31 22.33.15 1.21.17 2.45.17 3.68.01 11.29 0 22.57 0 33.86zm-11.33-1.9c-2.84-.03-5.25 2.33-5.3 5.19-.05 2.89 2.31 5.34 5.2 5.38 2.88.04 5.32-2.34 5.35-5.24.04-2.88-2.35-5.31-5.26-5.33zm-402.07 1.41v-22.98c0-2.18.43-2.63 2.59-2.62 5.07.03 10.15-.06 15.22.16 11.95.52 20.93 8.88 22.52 20.74.61 4.52.48 9.01-.86 13.39-2.9 9.49-9.46 14.83-19.11 16.51-1.67.29-3.38.38-5.08.4-4.25.05-8.51.02-12.77.02-2.14 0-2.51-.37-2.51-2.55v-23.07zm9.88 0v15.03c0 1.31.07 1.38 1.4 1.38 1.73 0 3.47.04 5.2-.05 6.31-.31 11.27-4.22 13.06-10.27.92-3.1 1-6.27.57-9.46-.94-6.92-5.37-11.65-12.09-12.7-2.22-.35-4.52-.23-6.79-.29-1.28-.03-1.35.06-1.35 1.33zm80.4.02v-22.98c0-2.18.43-2.63 2.58-2.63 5.64 0 11.29-.01 16.93 0 3.06 0 6.03.49 8.78 1.94 5.47 2.87 8.64 8.97 7.96 15.25-.68 6.29-3.96 10.56-9.89 12.74-.89.33-.83.67-.46 1.37 3.06 5.8 6.1 11.61 9.14 17.42 1.11 2.11.87 2.51-1.5 2.51-1.99 0-3.97-.04-5.96.01-1.58.04-2.62-.66-3.32-2.04-2.77-5.45-5.59-10.88-8.32-16.35-.52-1.03-1.13-1.46-2.26-1.35-.84.09-1.7.06-2.55 0-.88-.05-1.14.34-1.14 1.17.02 4.54.01 9.08 0 13.62 0 .98.01 1.95 0 2.93-.03 1.37-.61 1.96-1.97 1.98-1.99.02-3.97.02-5.96 0-1.52-.01-2.05-.54-2.06-2.06v-20.24-3.31zm10.01-9.91v6.15c0 .61.13 1.06.87 1.06 2.93-.03 5.87.09 8.79-.1 3.29-.22 5.64-2.32 6.29-5.24.98-4.42-1.47-8.2-5.97-8.69-3.06-.33-6.17-.16-9.25-.2-.67 0-.73.46-.73.97zm138.93 31.8c-1.87 2.6-4.47 3.96-7.55 4.42-6.91 1.03-13.61-2.31-17.04-8.45-4.32-7.72-3-18.31 3.2-24.15 4.85-4.57 10.62-5.45 16.89-3.58 1.72.51 3.14 1.56 4.24 3.04.08-.02.16-.05.24-.07v-1.06-16.17c0-2.03.47-2.49 2.51-2.5 1.61 0 3.22-.01 4.82 0 1.58.02 2.09.53 2.09 2.12v47.76c0 1.86-.48 2.35-2.35 2.36h-5.01c-1.29 0-1.53-.22-1.67-1.51-.08-.71-.1-1.42-.15-2.13-.08-.02-.16-.04-.24-.07zm.32-14.12c-.25-1.35-.38-2.75-.77-4.06-1.08-3.56-4.05-5.79-7.7-5.92-3.88-.14-7.04 1.82-8.41 5.34-1.26 3.22-1.23 6.49.13 9.67 2.38 5.59 9.88 6.9 13.98 2.48 1.96-2.1 2.56-4.71 2.77-7.52zm-42.87 14.01c-.26.24-.38.33-.47.45-2.62 3.32-6.21 4.4-10.24 4.23-9.2-.38-15.29-7.15-16.37-15.7-.64-5.08.19-9.88 3.06-14.2 4.4-6.63 11.93-8.48 18.62-6.67 1.83.5 3.43 1.42 4.64 2.93.09.11.22.2.52.46v-1.29-16.17c0-1.99.48-2.46 2.44-2.47h4.54c2.03 0 2.45.42 2.45 2.43 0 10.88 0 21.75.01 32.63v14.85c0 1.8-.51 2.32-2.29 2.33-1.77.01-3.53-.02-5.3 0-.9.02-1.35-.38-1.42-1.26-.06-.8-.13-1.6-.2-2.57zm0-14.06c-.09-.84-.14-1.69-.29-2.53-.73-4.12-3.38-6.76-7.32-7.33-3.74-.54-7.35 1.27-8.9 4.66-1.67 3.64-1.64 7.37.18 10.94 1.5 2.95 4.07 4.37 7.38 4.41 3.36.05 5.88-1.42 7.53-4.33 1.02-1.8 1.35-3.78 1.43-5.83zm263.51-5.17c-9.59-.02-17.26-7.76-17.24-17.37.02-9.55 7.82-17.28 17.4-17.25 9.57.03 17.24 7.79 17.22 17.41-.02 9.6-7.73 17.24-17.38 17.22zm-22.74-34.19c-9.04.05-16.53-7.42-16.59-16.55-.06-9.15 7.36-16.62 16.54-16.67 9.25-.05 16.67 7.25 16.73 16.44.06 9.37-7.27 16.73-16.68 16.79zm-286.85 42.04h-10.97c-1.27 0-1.39.16-1.13 1.38.72 3.41 3.7 6.16 7.33 6.59 3.74.44 6.97-.44 8.99-3.97.47-.82 1.21-1.09 2.1-.84 1.58.44 3.15.89 4.71 1.4 1.19.39 1.52 1.21.98 2.37-2.45 5.3-6.69 8.26-12.38 9.11-5.5.83-10.55-.36-14.9-3.94-4.15-3.41-6.06-7.98-6.39-13.23-.38-5.91 1.23-11.16 5.52-15.43 7.28-7.25 19.74-5.68 24.96.28 2.49 2.84 3.77 6.16 4.23 9.83.17 1.37.19 2.76.2 4.15.01 1.67-.52 2.24-2.2 2.25-3.69.04-7.38.01-11.06.01v.02zm-4.15-6.56c2.33 0 4.66-.01 6.99 0 .81 0 1.06-.32.91-1.1-.48-2.55-1.85-4.37-4.28-5.35-1.53-.62-3.13-.7-4.75-.54-3.19.32-5.91 2.73-6.61 5.79-.23 1.01-.11 1.18.93 1.19 2.27.01 4.54 0 6.8 0zm126.88 6.97c.25-.53.42-.85.57-1.18 2.38-5.66 4.79-11.32 7.13-17 .73-1.78 1.95-2.6 3.86-2.55 1.8.05 3.59 0 5.39.02 1.48.01 1.82.52 1.2 1.89-3.34 7.45-6.7 14.89-10.05 22.33-3.43 7.61-6.88 15.22-10.27 22.85-.76 1.71-1.86 2.57-3.78 2.48-1.82-.09-3.66 0-5.48-.03-1.43-.01-1.76-.51-1.17-1.84 2.31-5.14 4.63-10.29 6.99-15.41.39-.86.38-1.55-.03-2.39-4.49-9.17-8.94-18.36-13.41-27.54-.93-1.92-.68-2.34 1.43-2.34 1.8 0 3.59.04 5.39-.01 1.9-.05 3.13.75 3.91 2.5 2.53 5.67 5.12 11.31 7.7 16.96.17.36.35.71.63 1.28zm45.27-21.75c1.74 0 4.58.57 7.15 2.17 2.22 1.38 3.8 3.29 4.7 5.74.57 1.55.15 2.34-1.43 2.72-1.38.33-2.76.64-4.15.94-1.27.27-1.66.07-2.26-1.1-1.46-2.81-4.63-4.04-7.53-2.82-.74.31-1.49.89-1.96 1.54-1.13 1.57-.4 3.64 1.52 4.38 1.05.4 2.19.56 3.29.85 2.19.58 4.46.97 6.55 1.79 3.64 1.44 6.18 4.02 6.81 8.05.74 4.66-1.34 9.23-5.57 11.38-6.11 3.11-12.24 2.82-18.04-.95-2.15-1.4-3.53-3.49-4.33-5.93-.44-1.33.01-2.12 1.39-2.45 1.69-.4 3.39-.74 5.07-1.13.8-.19 1.21.09 1.49.86 1.27 3.59 5.28 5.32 8.79 3.81 1.32-.57 2.14-1.53 2.17-3.03s-.77-2.52-2.08-2.96c-1.85-.62-3.78-.98-5.65-1.53-1.66-.48-3.37-.9-4.91-1.65-6.37-3.1-7.8-11.12-2.99-16.34 2.88-3.12 6.52-4.39 11.94-4.35zm129.82 23.73c-.02 7.17-5.87 13-13.04 12.98-7.21-.02-13.07-5.91-13.04-13.1.03-7.2 5.91-12.99 13.16-12.96 7.17.03 12.93 5.87 12.92 13.09zm-392.01-17.9c.49-.64.89-1.24 1.38-1.77 2.1-2.28 4.82-3.17 7.81-3.24 3.53-.09 2.92-.2 2.96 2.87.03 1.89-.01 3.78 0 5.67.01.83-.3 1.12-1.15 1-1.8-.26-3.59-.14-5.33.44-3.37 1.12-5.38 4-5.48 8.14-.11 4.35-.05 8.7-.06 13.05 0 .88.02 1.77-.02 2.65-.07 1.31-.66 1.88-1.97 1.9-1.83.03-3.66.02-5.49 0-1.55-.01-2.1-.56-2.1-2.13v-20.9-10.31c0-1.61.55-2.16 2.17-2.18 1.7-.02 3.4-.02 5.11 0 1.37.02 1.94.62 1.98 1.98.02.85.02 1.7.04 2.55 0 .05.06.1.14.26zm371.77-1.98c-5.47-.03-9.86-4.46-9.81-9.9.04-5.46 4.46-9.81 9.94-9.8 5.44.01 9.84 4.47 9.8 9.92-.04 5.48-4.43 9.8-9.93 9.78zm53.19-37.27c0 5.07-4.01 9.06-9.07 9.05-5.02-.01-9.1-4.12-9.05-9.11.05-4.97 4.13-9.03 9.07-9.03 5.05 0 9.06 4.03 9.06 9.09zm-182.6 36.64q-2.54 0-1.51-2.29c.68-1.53 1.34-3.06 2.06-4.57.33-.7.32-1.07-.49-1.43-2.69-1.21-4.01-3.95-3.33-6.69.68-2.7 3.21-4.59 5.95-4.43 2.89.17 5.23 2.26 5.5 5.16.1 1.04-.12 2.24-.57 3.19-1.57 3.37-3.33 6.65-4.95 10-.6 1.25-1.64 1.06-2.67 1.07zm-231.97 27.33c-.01-3.65 2.86-6.56 6.5-6.59 3.62-.03 6.58 2.9 6.6 6.51a6.564 6.564 0 0 1 -6.61 6.6c-3.56 0-6.47-2.94-6.48-6.52zm355.57 9.76c2.48 0 4.45 1.97 4.44 4.45 0 2.43-2.02 4.45-4.47 4.45-2.46 0-4.47-1.98-4.49-4.43-.02-2.51 1.97-4.49 4.52-4.48z" fill="#4b2a91"/></svg>